<?xml version="1.0" standalone="no"?>
<!DOCTYPE svg PUBLIC "-//W3C//DTD SVG 20010904//EN"
 "http://www.w3.org/TR/2001/REC-SVG-20010904/DTD/svg10.dtd">
<svg version="1.0" xmlns="http://www.w3.org/2000/svg"
 width="1250.000000pt" height="911.000000pt" viewBox="0 0 1250.000000 911.000000"
 preserveAspectRatio="xMidYMid meet">

<g transform="translate(0.000000,911.000000) scale(0.100000,-0.100000)"
fill="#000000" stroke="none">
<path d="M6744 5807 c-160 -265 -543 -899 -850 -1409 l-559 -927 -1409 -3
-1410 -3 -313 -415 c-172 -228 -313 -418 -313 -422 0 -5 874 -8 1943 -8 l1942
1 305 507 c168 279 442 734 609 1012 167 278 309 510 315 517 8 9 148 -235
577 -1010 l567 -1022 461 -3 c270 -1 461 2 461 7 0 5 -116 217 -257 472 -141
255 -596 1076 -1010 1824 -414 748 -756 1361 -761 1362 -4 2 -138 -214 -298
-480z"/>
<path d="M7032 3598 l3 -153 148 -3 147 -3 0 156 0 155 -150 0 -151 0 3 -152z"/>
<path d="M6630 3175 l0 -155 150 0 150 0 0 155 0 155 -150 0 -150 0 0 -155z"/>
<path d="M5120 2440 l0 -60 2035 -2 c1119 -2 2304 -3 2633 -3 l597 0 3 63 3
62 -2636 0 -2635 0 0 -60z"/>
<path d="M6320 1934 l0 -197 -20 25 c-31 40 -80 58 -157 58 -87 -1 -135 -22
-195 -89 -66 -73 -83 -129 -83 -271 0 -146 18 -204 84 -270 52 -51 100 -70
182 -70 63 0 127 28 164 72 l25 30 0 -41 0 -41 100 0 100 0 0 495 0 495 -100
0 -100 0 0 -196z m-59 -290 c41 -21 59 -70 59 -165 0 -132 -45 -199 -132 -199
-80 1 -128 68 -128 181 0 81 14 124 53 166 41 44 84 49 148 17z"/>
<path d="M9199 2091 c-43 -43 -41 -101 5 -147 38 -38 85 -45 135 -20 58 30 69
119 22 167 -25 25 -37 29 -81 29 -44 0 -56 -4 -81 -29z"/>
<path d="M7990 2074 c-103 -28 -203 -112 -254 -213 -73 -144 -75 -374 -5 -514
79 -157 219 -234 406 -225 82 5 103 10 168 42 166 82 255 258 242 481 -17 278
-178 446 -426 444 -42 0 -101 -7 -131 -15z m183 -175 c47 -13 102 -60 128
-110 47 -92 46 -276 -1 -368 -35 -69 -114 -121 -185 -121 -78 0 -158 58 -196
143 -20 44 -24 68 -24 162 0 93 4 118 23 161 51 112 148 163 255 133z"/>
<path d="M630 2067 c0 -4 -244 -714 -290 -844 l-29 -83 110 0 c79 0 111 4 114
13 2 6 16 51 30 100 l26 87 158 0 158 0 29 -97 30 -98 107 -3 c59 -1 107 1
107 5 1 4 -68 214 -152 465 l-153 458 -122 0 c-68 0 -123 -1 -123 -3z m180
-397 l46 -155 -104 -3 c-58 -1 -107 -1 -109 2 -3 2 18 80 46 172 28 92 51 177
52 188 1 24 2 22 69 -204z"/>
<path d="M11135 1981 l-90 -27 -3 -72 -3 -71 -52 -3 -52 -3 0 -75 0 -75 53 -3
52 -3 0 -182 c0 -100 5 -199 10 -219 25 -90 101 -133 223 -126 98 4 107 13
107 99 l0 69 -44 -6 c-90 -13 -106 22 -106 228 l0 137 73 3 72 3 0 75 0 75
-70 5 -70 5 -5 96 -5 96 -90 -26z"/>
<path d="M1400 1811 c-69 -21 -130 -72 -149 -124 -15 -40 -14 -133 3 -165 31
-58 76 -88 209 -136 26 -10 55 -29 64 -42 14 -22 14 -26 -1 -49 -30 -45 -143
-46 -236 -2 l-50 24 0 -83 0 -83 57 -17 c88 -26 234 -16 308 21 81 39 115 94
115 185 0 105 -41 152 -178 204 -87 34 -112 51 -112 81 0 65 115 74 243 20 15
-6 17 1 17 73 l0 80 -44 11 c-50 12 -207 13 -246 2z"/>
<path d="M1994 1801 c-133 -60 -202 -193 -192 -371 7 -111 34 -176 100 -235
69 -62 131 -79 257 -72 53 3 117 13 144 22 l47 17 0 78 0 78 -42 -21 c-61 -29
-182 -35 -232 -12 -42 20 -63 47 -72 93 l-6 32 203 2 204 3 -2 92 c-3 123 -28
187 -93 246 -26 24 -66 49 -88 55 -61 18 -180 15 -228 -7z m177 -131 c25 -14
49 -62 49 -100 l0 -30 -110 0 c-122 0 -123 1 -96 64 27 64 101 95 157 66z"/>
<path d="M2626 1804 c-123 -45 -178 -167 -127 -280 24 -53 67 -85 165 -123 85
-33 116 -54 116 -81 0 -61 -138 -76 -242 -28 l-58 27 0 -84 0 -83 38 -14 c22
-8 82 -13 152 -13 103 0 121 3 171 26 97 46 143 138 119 239 -16 67 -71 115
-175 154 -106 39 -133 68 -101 111 10 13 30 20 72 23 54 3 88 -4 157 -33 15
-6 17 1 17 73 l0 80 -44 11 c-62 15 -213 13 -260 -5z"/>
<path d="M3244 1799 c-146 -56 -227 -220 -196 -400 21 -122 74 -199 170 -246
51 -25 67 -28 162 -28 113 0 145 9 216 56 119 80 170 307 104 457 -30 67 -103
138 -168 162 -72 27 -216 27 -288 -1z m224 -157 c35 -23 55 -70 60 -142 6 -86
-11 -145 -54 -188 -33 -33 -37 -34 -94 -30 -100 7 -134 56 -134 188 0 89 12
127 52 163 41 38 120 42 170 9z"/>
<path d="M4155 1806 c-31 -14 -74 -56 -93 -91 -9 -16 -11 -10 -12 38 l0 58
-97 -3 -98 -3 0 -330 0 -330 97 -3 96 -3 4 198 c3 168 6 203 21 231 33 61 106
87 172 62 l26 -10 -3 98 -3 97 -40 2 c-22 2 -53 -3 -70 -11z"/>
<path d="M4479 1787 c-114 -58 -175 -174 -173 -327 2 -210 108 -330 297 -339
84 -3 184 12 229 35 27 14 28 18 28 84 0 39 -3 70 -7 70 -5 0 -32 -9 -61 -20
-67 -25 -164 -27 -211 -2 -39 19 -67 54 -77 95 l-6 27 207 0 208 0 -5 103 c-7
153 -49 231 -150 281 -43 22 -66 26 -134 26 -73 0 -89 -4 -145 -33z m195 -118
c25 -12 56 -72 56 -109 0 -19 -7 -20 -115 -20 -72 0 -115 4 -115 10 0 24 31
82 56 105 30 27 76 33 118 14z"/>
<path d="M5139 1807 c-104 -39 -152 -102 -152 -196 0 -109 45 -159 198 -216
86 -33 95 -40 95 -76 0 -58 -104 -77 -210 -38 -99 36 -90 41 -90 -44 0 -48 4
-78 13 -84 48 -39 265 -43 347 -6 53 24 98 66 116 110 19 45 17 131 -4 173
-21 43 -91 91 -173 119 -72 24 -99 45 -99 77 0 54 103 72 200 35 l50 -19 0 78
c0 65 -3 79 -17 85 -35 15 -236 16 -274 2z"/>
<path d="M6855 1808 c-45 -16 -111 -64 -140 -103 -104 -135 -92 -401 22 -506
74 -70 208 -96 344 -70 107 22 109 23 109 108 0 40 -1 73 -2 73 -2 0 -27 -9
-56 -20 -71 -27 -175 -27 -219 0 -36 22 -58 52 -68 93 l-7 27 207 0 208 0 -5
100 c-4 86 -9 108 -37 165 -34 69 -76 108 -138 131 -45 16 -176 17 -218 2z
m168 -148 c23 -19 47 -72 47 -107 0 -10 -30 -13 -115 -13 -85 0 -115 3 -115
13 1 25 39 95 61 111 33 22 91 20 122 -4z"/>
<path d="M8975 1806 c-29 -12 -64 -48 -92 -92 -10 -16 -12 -10 -12 39 l-1 58
-97 -3 -98 -3 0 -330 0 -330 98 -3 97 -3 0 178 c1 141 4 188 18 228 27 79 100
114 177 85 l26 -10 -3 98 -3 97 -40 2 c-22 2 -54 -3 -70 -11z"/>
<path d="M9715 1808 c-46 -17 -112 -65 -140 -103 -104 -135 -92 -401 22 -506
74 -70 208 -96 344 -70 107 22 109 23 109 108 0 40 -1 73 -2 73 -2 0 -27 -9
-56 -20 -71 -27 -175 -27 -219 0 -36 22 -58 52 -68 93 l-7 27 206 0 206 0 0
73 c0 144 -49 252 -137 304 -40 23 -60 28 -138 30 -49 1 -103 -3 -120 -9z
m168 -148 c23 -19 47 -72 47 -107 0 -10 -30 -13 -115 -13 -85 0 -115 3 -115
13 1 25 39 95 61 111 33 22 91 20 122 -4z"/>
<path d="M10524 1802 c-22 -11 -55 -37 -72 -58 l-32 -39 0 53 0 53 -97 -3 -98
-3 0 -330 0 -330 98 -3 97 -3 0 198 c0 217 6 257 47 295 38 35 65 41 108 24
59 -25 65 -53 65 -301 l0 -215 101 0 100 0 -3 263 c-3 242 -5 265 -24 308 -12
25 -39 59 -60 75 -32 25 -47 29 -113 32 -58 2 -86 -2 -117 -16z"/>
<path d="M11625 1796 c-75 -35 -140 -112 -166 -198 -28 -92 -23 -227 11 -305
31 -73 102 -137 176 -159 79 -23 230 -16 297 14 l47 21 0 76 0 75 -42 -21
c-57 -30 -178 -38 -230 -16 -40 17 -78 67 -78 105 l0 22 200 0 200 0 0 89 c0
123 -20 182 -85 246 -59 60 -102 75 -206 75 -56 0 -86 -6 -124 -24z m186 -126
c25 -14 49 -62 49 -100 l0 -30 -110 0 c-104 0 -110 1 -110 20 0 30 26 75 56
99 29 23 83 28 115 11z"/>
<path d="M9180 1475 l0 -335 100 0 100 0 -2 333 -3 332 -97 3 -98 3 0 -336z"/>
<path d="M3400 650 l0 -290 123 0 c141 0 181 13 210 70 14 27 17 52 15 109 -3
62 -7 76 -27 92 l-23 19 26 31 c22 26 26 40 26 95 0 141 -31 164 -220 164
l-130 0 0 -290z m259 197 c33 -41 18 -142 -22 -153 -13 -3 -54 -4 -92 -2 l-70
3 -3 83 -3 82 89 0 c63 0 93 -4 101 -13z m-1 -249 c17 -22 24 -59 18 -94 -11
-55 -27 -64 -122 -64 l-84 0 0 85 0 85 89 0 c59 0 92 -4 99 -12z"/>
<path d="M3920 900 c0 -39 1 -40 35 -40 34 0 35 1 35 40 0 39 -1 40 -35 40
-34 0 -35 -1 -35 -40z"/>
<path d="M6280 650 l0 -290 35 0 35 0 0 125 0 126 57 -3 57 -3 44 -122 45
-123 33 0 c19 0 34 5 34 11 0 6 -18 60 -40 120 -22 60 -40 113 -40 118 0 5 11
12 25 15 54 14 84 154 51 240 -25 65 -55 76 -210 76 l-126 0 0 -290z m258 198
c7 -7 12 -37 12 -67 0 -80 -13 -91 -117 -91 l-83 0 0 85 0 85 88 0 c55 0 92
-4 100 -12z"/>
<path d="M7291 898 c-7 -24 -15 -51 -17 -60 -4 -14 1 -18 24 -18 30 0 33 4 68
88 l14 32 -38 0 c-37 0 -39 -2 -51 -42z"/>
<path d="M3920 565 l0 -205 35 0 35 0 0 205 0 205 -35 0 -35 0 0 -205z"/>
<path d="M4209 755 c-38 -21 -52 -60 -56 -165 -5 -114 10 -174 50 -204 24 -18
46 -22 133 -24 l104 -4 0 41 0 41 -88 0 c-100 0 -122 12 -122 68 l0 31 118 3
117 3 0 65 c0 79 -18 126 -56 145 -36 19 -165 19 -200 0z m166 -75 c8 -7 15
-28 15 -46 l0 -34 -81 0 -80 0 3 37 c2 28 9 41 28 51 28 14 93 10 115 -8z"/>
<path d="M4630 565 l0 -205 35 0 35 0 0 155 c0 177 -1 174 91 178 75 3 79 -6
79 -185 l0 -148 35 0 35 0 0 171 0 171 -34 34 c-31 31 -39 34 -93 34 -37 0
-67 -6 -79 -15 -25 -19 -34 -19 -34 0 0 10 -11 15 -35 15 l-35 0 0 -205z"/>
<path d="M5144 736 l-34 -34 0 -126 c0 -192 14 -208 183 -214 l107 -4 0 41 0
41 -94 0 c-87 0 -96 2 -110 22 -9 12 -16 35 -16 50 l0 28 120 0 120 0 0 58 c0
136 -34 172 -163 172 -76 0 -80 -1 -113 -34z m181 -56 c8 -7 15 -28 15 -46 l0
-34 -80 0 -80 0 0 28 c0 30 16 56 40 66 22 8 89 0 105 -14z"/>
<path d="M5615 746 c-48 -48 -44 -151 7 -189 18 -13 50 -22 94 -26 77 -7 96
-23 76 -65 -11 -25 -14 -26 -112 -26 l-100 0 0 -40 0 -40 101 0 c155 0 189 25
189 135 0 42 -5 60 -24 81 -20 24 -32 28 -92 32 -77 5 -94 14 -94 48 0 34 28
44 124 44 l86 0 0 35 0 35 -115 0 c-109 0 -117 -1 -140 -24z"/>
<path d="M6830 735 l0 -35 59 0 c103 0 141 -27 141 -100 l0 -30 -41 21 c-42
23 -106 22 -150 -2 -24 -12 -49 -66 -49 -104 0 -38 25 -92 49 -104 43 -24 108
-25 150 -3 39 21 40 21 46 2 4 -14 15 -20 36 -20 l29 0 0 159 c0 148 -1 160
-23 192 -33 48 -60 59 -159 59 l-88 0 0 -35z m169 -216 c23 -8 31 -17 31 -34
0 -17 -8 -26 -31 -34 -68 -24 -129 -8 -129 34 0 42 60 58 129 34z"/>
<path d="M7270 565 l0 -205 35 0 35 0 0 205 0 205 -35 0 -35 0 0 -205z"/>
<path d="M7544 736 l-34 -34 0 -126 c0 -192 14 -208 183 -214 l107 -4 0 41 0
41 -94 0 c-120 0 -126 6 -126 130 0 120 4 124 124 128 l96 4 0 34 0 34 -111 0
-111 0 -34 -34z"/>
<path d="M8019 755 c-38 -21 -52 -60 -56 -165 -5 -114 10 -174 50 -204 25 -18
42 -21 135 -21 l107 0 3 38 3 37 -94 0 c-106 0 -127 11 -127 68 l0 32 115 0
115 0 0 75 c0 86 -13 121 -51 141 -36 18 -165 18 -200 -1z m166 -75 c8 -7 15
-28 15 -46 l0 -34 -81 0 -80 0 3 37 c2 28 9 41 28 51 28 14 93 10 115 -8z"/>
<path d="M8474 747 c-23 -20 -28 -34 -32 -84 -4 -55 -2 -63 25 -93 26 -29 35
-32 98 -37 69 -5 95 -19 95 -49 0 -33 -31 -44 -126 -44 l-94 0 0 -41 0 -41
115 4 c109 3 116 4 141 30 20 19 28 39 32 77 9 98 -31 141 -132 141 -63 0 -91
19 -80 54 4 11 9 23 11 26 3 3 49 7 104 8 l99 4 0 34 0 34 -114 0 c-106 0
-117 -2 -142 -23z"/>
</g>
</svg>
